<?xml version="1.0" encoding="UTF-8"?>
<svg id="Capa_1" data-name="Capa 1" xmlns="http://www.w3.org/2000/svg" xmlns:xlink="http://www.w3.org/1999/xlink" viewBox="0 0 1920 1080">
  <defs>
    <style>
      .cls-1 {
        fill: none;
        stroke: #000;
        stroke-miterlimit: 10;
        stroke-width: 1.01px;
      }

      .cls-2 {
        fill: url(#Degradado_sin_nombre_16);
      }

      .cls-2, .cls-3, .cls-4, .cls-5 {
        stroke-width: 0px;
      }

      .cls-3 {
        fill: url(#Degradado_sin_nombre_18);
      }

      .cls-4 {
        fill: url(#Degradado_sin_nombre_22-2);
      }

      .cls-5 {
        fill: url(#Degradado_sin_nombre_22);
      }
    </style>
    <linearGradient id="Degradado_sin_nombre_22" data-name="Degradado sin nombre 22" x1="858.63" y1="498.55" x2="1057.52" y2="791.32" gradientUnits="userSpaceOnUse">
      <stop offset=".06" stop-color="#662d91"/>
      <stop offset=".18" stop-color="#6d3197"/>
      <stop offset=".38" stop-color="#813ea9"/>
      <stop offset=".6" stop-color="#a154c7"/>
      <stop offset=".84" stop-color="#cb6fed"/>
    </linearGradient>
    <linearGradient id="Degradado_sin_nombre_16" data-name="Degradado sin nombre 16" x1="724.61" y1="636.5" x2="1165.75" y2="824.95" gradientUnits="userSpaceOnUse">
      <stop offset=".06" stop-color="#34ebc6"/>
      <stop offset=".84" stop-color="#7288ff"/>
    </linearGradient>
    <linearGradient id="Degradado_sin_nombre_22-2" data-name="Degradado sin nombre 22" x1="1036.89" y1="317.72" x2="1087.29" y2="616.07" xlink:href="#Degradado_sin_nombre_22"/>
    <linearGradient id="Degradado_sin_nombre_18" data-name="Degradado sin nombre 18" x1="857.35" y1="264.26" x2="1278.95" y2="438.02" gradientUnits="userSpaceOnUse">
      <stop offset=".06" stop-color="#7288ff"/>
      <stop offset=".84" stop-color="#34ebc6"/>
    </linearGradient>
  </defs>
  <line class="cls-1" x1="773" y1="737.53" x2="772.5" y2="737.24"/>
  <line class="cls-1" x1="830" y1="770.44" x2="829.51" y2="770.15"/>
  <line class="cls-1" x1="887" y1="803.35" x2="886.5" y2="803.06"/>
  <line class="cls-1" x1="944" y1="836.25" x2="943.5" y2="835.97"/>
  <line class="cls-1" x1="1001" y1="869.16" x2="1000.51" y2="868.88"/>
  <line class="cls-1" x1="887" y1="408.44" x2="886.5" y2="408.15"/>
  <polygon class="cls-5" points="1171.5 704.33 1115 736.95 1114.5 737.24 1058 769.86 1057.49 770.15 1001 737.53 1001 736.95 1000.5 737.24 944 704.63 944 704.05 943.5 704.34 887 671.72 887 671.13 886.49 671.42 830 638.81 830 638.23 829.5 638.52 773 605.9 773 605.32 772.5 605.61 716 572.99 716 572.41 772.5 539.79 773 540.07 773 539.5 829.5 506.88 830 507.17 830 506.59 886.49 473.97 887 474.26 887 473.68 943.5 441.06 944 441.35 1000.51 473.97 1001 474.26 1057.5 506.88 1001 539.5 1000.5 539.79 944 572.41 943.5 572.7 944 572.99 1000.5 605.61 1001 605.9 1057.5 638.52 1058 638.8 1114.5 671.42 1115 671.71 1171.5 704.33"/>
  <path class="cls-2" d="M1172,704.62l-.5-.29-56.5,32.62v.58l-.5-.29-56.5,32.62v.58l-.51-.29-56.49-32.62-.5-.29-56.5-32.61-.5-.29-56.5-32.62-.51-.3-56.49-32.61-.5-.29-56.5-32.62-.5-.29-56.5-32.62v131.63l56.5,32.62.5-.29v.58l56.51,32.62.49-.28v.57l56.5,32.62.5-.29v.58l56.5,32.62.5-.29v.57l56.51,32.63.49-.29v.57l56.5,32.62.5-.28,56.5-32.62.5-.29,56.5-32.62.5-.29v-65.24l-.49-.29.49-.28v-65.25ZM1058,836.26l-.5-.29.5-.29v.58Z"/>
  <line class="cls-1" x1="773" y1="539.5" x2="772.5" y2="539.79"/>
  <line class="cls-1" x1="830" y1="506.59" x2="829.5" y2="506.88"/>
  <line class="cls-1" x1="887" y1="473.68" x2="886.49" y2="473.97"/>
  <line class="cls-1" x1="887" y1="210.41" x2="886.5" y2="210.7"/>
  <polygon class="cls-4" points="1285.5 506.88 1229 539.5 1228.5 539.79 1172 572.41 1171.51 572.7 1115 605.32 1114.5 605.61 1058 638.23 1057.5 638.52 1001 605.9 1001 605.31 1000.5 605.61 944 572.99 944 572.41 1000.5 539.79 1001 540.08 1001 539.5 1057.5 506.88 1058 507.17 1058 506.59 1057.5 506.88 1001 474.26 1001 473.69 1000.51 473.97 944 441.35 944 440.77 943.5 441.06 887 408.44 887 407.86 886.5 408.15 830 375.53 830 374.96 886.5 342.34 887 342.62 887 342.05 943.5 309.43 944 309.72 1000.5 342.34 1001 342.63 1057.49 375.24 1058 375.54 1114.5 408.16 1115 408.45 1171.5 441.06 1172 441.35 1228.49 473.97 1229 474.26 1285.5 506.88"/>
  <path class="cls-3" d="M1286,375.53l-.5-.29-56.5-32.62-.5-.28-56.5-32.62-.5-.29-56.5-32.62-.5-.29-56.5-32.62-.5-.29-56.5-32.62-.5-.29-56.5-32.62-.5-.29-56.5,32.62v.58l-.5-.29-56.5,32.62v131.64l56.5-32.62.5-.29,56.5-32.62.5-.29v.58l56.5,32.62.5-.29v.58l56.49,32.61.51-.29v.59l56.5,32.62.5-.29v.58l56.5,32.61.5-.29v.58l56.49,32.62.51-.29v.58l56.5,32.62.5-.29v-65.24l-.5-.29.5-.29v-65.24ZM944,243.89l-.5-.28.5-.29v.57Z"/>
</svg>